# File created by Blade
# Date/Time:  Wed Jan 21 16:33:39 2015
#---------------------------------------------------------
:version 1.10
:name HOM
:units
  mass 1.0
  length 1.000000
  angle deg
:documentation
     Acclaim Skeleton File
:root
   axis xyz
   order TX TY TZ RX RY RZ
   position 0.000000 0.000000 0.000000
   orientation 0 0 0
:bonedata
   begin
      id 1
      name Spine_dum
      direction 0.000000 1.000000 0.000000
      length 7.067664
      axis 0.0 0.0 0.0 xyz
   end
   begin
      id 2
      name LeftUpLeg_dum
      direction 1.000000 0.000000 0.000000
      length 4.013002
      axis 0.0 0.0 0.0 xyz
   end
   begin
      id 3
      name RightUpLeg_dum
      direction -1.000000 0.000000 0.000000
      length 4.013002
      axis 0.0 0.0 0.0 xyz
   end
   begin
      id 4
      name Spine
      direction 0.000000 1.000000 0.000000
      length 0.000000
      axis 0.0 0.0 0.0 xyz
      dof rx ry rz
   end
   begin
      id 5
      name Spine_dum1
      direction 0.000000 1.000000 0.000000
      length 15.039886
      axis 0.0 0.0 0.0 xyz
   end
   begin
      id 6
      name Spine_dum2
      direction 0.000000 1.000000 0.000000
      length 10.530368
      axis 0.0 0.0 0.0 xyz
   end
   begin
      id 7
      name Spine_dum3
      direction 0.000000 1.000000 0.000000
      length 10.530368
      axis 0.0 0.0 0.0 xyz
   end
   begin
      id 8
      name Head
      direction 0.000000 1.000000 0.000000
      length 4.527550
      axis 0.0 0.0 0.0 xyz
      dof rx ry rz
   end
   begin
      id 9
      name LeftShoulder
      direction 1.000000 0.000000 0.000000
      length 7.028855
      axis 0.0 0.0 -90.0 xyz
      dof rx ry rz
   end
   begin
      id 10
      name LeftArm
      direction 1.000000 0.000000 0.000000
      length 10.797705
      axis 0.0 0.0 -90.0 xyz
      dof rx ry rz
   end
   begin
      id 11
      name LeftForeArm
      direction 1.000000 0.000000 0.000000
      length 7.907442
      axis 0.0 0.0 -90.0 xyz
      dof ry rz rx
   end
   begin
      id 12
      name LeftHand
      direction 0.000000 0.000000 0.000000
      length 0.000000
      axis 0.0 0.0 -90.0 xyz
      dof rx ry rz
   end
   begin
      id 13
      name LeftHand_dum1
      direction 0.000000 0.000000 0.000000
      length 0.000000
      axis 0.0 0.0 -90.0 xyz
   end
   begin
      id 14
      name LeftHand_dum2
      direction 1.000000 0.000000 0.000000
      length 3.937000
      axis 0.0 0.0 -90.0 xyz
   end
   begin
      id 15
      name LeftHandThumb1
      direction 0.000000 0.000000 1.000000
      length 3.937000
      axis 0.0 0.0 -90.0 xyz
      dof rx rz ry
   end
   begin
      id 16
      name RightShoulder
      direction -1.000000 0.000000 0.000000
      length 7.028855
      axis 0.0 0.0 90.0 xyz
      dof rx ry rz
   end
   begin
      id 17
      name RightArm
      direction -1.000000 0.000000 0.000000
      length 10.797705
      axis 0.0 0.0 90.0 xyz
      dof rx ry rz
   end
   begin
      id 18
      name RightForeArm
      direction -1.000000 0.000000 0.000000
      length 7.907442
      axis 0.0 0.0 90.0 xyz
      dof ry rz rx
   end
   begin
      id 19
      name RightHand
      direction 0.000000 0.000000 0.000000
      length 0.000000
      axis 0.0 0.0 90.0 xyz
      dof rx ry rz
   end
   begin
      id 20
      name RightHand_dum1
      direction 0.000000 0.000000 0.000000
      length 0.000000
      axis 0.0 0.0 90.0 xyz
   end
   begin
      id 21
      name RightHand_dum2
      direction -1.000000 0.000000 0.000000
      length 3.937000
      axis 0.0 0.0 90.0 xyz
   end
   begin
      id 22
      name RightHandThumb1
      direction 0.000000 0.000000 1.000000
      length 3.937000
      axis 0.0 0.0 90.0 xyz
      dof rx rz ry
   end
   begin
      id 23
      name LeftUpLeg
      direction 0.000000 -1.000000 0.000000
      length 16.899758
      axis 0.0 0.0 0.0 xyz
      dof rx ry rz
   end
   begin
      id 24
      name LeftLeg
      direction 0.000000 -1.000000 0.000000
      length 17.389183
      axis 0.0 0.0 0.0 xyz
      dof rx ry rz
   end
   begin
      id 25
      name LeftFoot
      direction 0.000000 -0.258819 0.965926
      length 4.924528
      axis 15.0 0.0 0.0 xyz
      dof rx ry rz
   end
   begin
      id 26
      name LeftToeBase
      direction 0.000000 0.000000 1.000000
      length 2.952750
      axis 0.0 0.0 0.0 xyz
      dof rx ry rz
   end
   begin
      id 27
      name RightUpLeg
      direction 0.000000 -1.000000 0.000000
      length 16.899758
      axis 0.0 0.0 0.0 xyz
      dof rx ry rz
   end
   begin
      id 28
      name RightLeg
      direction 0.000000 -1.000000 0.000000
      length 17.389183
      axis 0.0 0.0 0.0 xyz
      dof rx ry rz
   end
   begin
      id 29
      name RightFoot
      direction 0.000000 -0.258819 0.965926
      length 4.924528
      axis 15.0 0.0 0.0 xyz
      dof rx ry rz
   end
   begin
      id 30
      name RightToeBase
      direction 0.000000 0.000000 1.000000
      length 2.952750
      axis 0.0 0.0 0.0 xyz
      dof rx ry rz
   end
:hierarchy
   begin
      root Spine_dum LeftUpLeg_dum RightUpLeg_dum
      Spine_dum Spine
      LeftUpLeg_dum LeftUpLeg
      RightUpLeg_dum RightUpLeg
      Spine Spine_dum1 Spine_dum2 Spine_dum3
      Spine_dum1 Head
      Spine_dum2 LeftShoulder
      Spine_dum3 RightShoulder
      LeftShoulder LeftArm
      LeftArm LeftForeArm
      LeftForeArm LeftHand
      LeftHand LeftHand_dum1 LeftHand_dum2
      LeftHand_dum1 LeftHandThumb1
      RightShoulder RightArm
      RightArm RightForeArm
      RightForeArm RightHand
      RightHand RightHand_dum1 RightHand_dum2
      RightHand_dum1 RightHandThumb1
      LeftUpLeg LeftLeg
      LeftLeg LeftFoot
      LeftFoot LeftToeBase
      RightUpLeg RightLeg
      RightLeg RightFoot
      RightFoot RightToeBase
   end

# File created by Blade
# Date/Time:  Wed Jan 21 16:33:30 2015
# Frame Rate: 120.000 fps
#------------------------------------------------------
:FULLY-SPECIFIED
:DEGREES
1
root 20.136462 35.336626 -24.902056 -142.573187 87.631023 -145.789599
Spine -12.467821 0.299578 2.087311
Head 4.161804 1.739636 -2.518845
LeftShoulder -17.116948 -28.488083 19.756911
LeftArm 2.973225 -0.434710 -9.095097
LeftForeArm 7.731810 -0.000000 -2.472041
LeftHand -9.939240 -0.000000 -3.787153
LeftHandThumb1 -26.253704 0.000000 33.147579
RightShoulder -14.409007 -6.678249 -10.316843
RightArm 8.208532 41.265343 15.094532
RightForeArm -36.046087 0.000000 5.624456
RightHand -9.320355 -0.000000 5.603144
RightHandThumb1 -24.326973 -0.000000 -32.862282
LeftUpLeg 7.461826 8.224298 2.274966
LeftLeg -5.887402 -0.000000 0.000000
LeftFoot -21.520060 24.481086 -11.865378
LeftToeBase 25.403482 -0.000000 -0.000000
RightUpLeg 6.701867 -8.505571 -0.276805
RightLeg -3.588506 -0.000000 0.000000
RightFoot -22.578227 -20.438320 16.629017
RightToeBase 23.505475 -0.000000 -0.000000
2
root 20.133375 35.337067 -24.901805 -142.525575 87.637127 -145.740103
Spine -12.451679 0.283374 2.080583
Head 4.212226 1.775244 -2.486783
LeftShoulder -17.130482 -28.452143 19.760781
LeftArm 2.982700 -0.463007 -9.101191
LeftForeArm 7.726707 0.000000 -2.475576
LeftHand -9.914947 -0.000000 -3.764054
LeftHandThumb1 -26.253704 0.000000 33.147579
RightShoulder -14.399828 -6.709840 -10.312205
RightArm 8.260017 41.287019 15.141233
RightForeArm -36.028100 -0.000000 5.593680
RightHand -9.317470 -0.000000 5.581679
RightHandThumb1 -24.326973 -0.000000 -32.862282
LeftUpLeg 7.456808 8.220328 2.271425
LeftLeg -5.882403 -0.000000 0.000000
LeftFoot -21.521177 24.491585 -11.870196
LeftToeBase 25.455348 -0.000000 -0.000000
RightUpLeg 6.695314 -8.500461 -0.278703
RightLeg -3.585269 -0.000000 0.000000
RightFoot -22.583311 -20.434327 16.636313
RightToeBase 23.560314 -0.000000 -0.000000
3
root 20.130806 35.337642 -24.901779 -142.371662 87.640840 -145.582636
Spine -12.433678 0.283932 2.078031
Head 4.237781 1.778291 -2.481028
LeftShoulder -17.130516 -28.439943 19.754732
LeftArm 2.989870 -0.436451 -9.101253
LeftForeArm 7.707082 -0.000000 -2.470748
LeftHand -9.940214 -0.000000 -3.737066
LeftHandThumb1 -26.253704 0.000000 33.147579
RightShoulder -14.388880 -6.714079 -10.305290
RightArm 8.256535 41.275876 15.142489
RightForeArm -36.003966 -0.000000 5.585259
RightHand -9.312481 -0.000000 5.567234
RightHandThumb1 -24.326973 -0.000000 -32.862282
LeftUpLeg 7.450776 8.236728 2.275481
LeftLeg -5.870753 -0.000000 0.000000
LeftFoot -21.518297 24.476333 -11.861356
LeftToeBase 25.454324 -0.000000 -0.000000
RightUpLeg 6.686570 -8.512076 -0.279436
RightLeg -3.571140 -0.000000 0.000000
RightFoot -22.578989 -20.400095 16.653772
RightToeBase 23.521130 -0.000000 -0.000000
4
root 20.128195 35.337858 -24.902093 -142.280180 87.649105 -145.488525
Spine -12.415936 0.290540 2.070219
Head 4.263563 1.768265 -2.483137
LeftShoulder -17.137953 -28.418030 19.747436
LeftArm 3.017171 -0.455358 -9.107570
LeftForeArm 7.722273 -0.000000 -2.469272
LeftHand -9.957572 -0.000000 -3.721945
LeftHandThumb1 -26.253704 0.000000 33.147579
RightShoulder -14.384709 -6.702222 -10.303740
RightArm 8.246082 41.238143 15.139897
RightForeArm -35.992067 0.000000 5.587434
RightHand -9.306001 -0.000000 5.588629
RightHandThumb1 -24.326973 -0.000000 -32.862282
LeftUpLeg 7.446638 8.247647 2.271794
LeftLeg -5.864536 -0.000000 0.000000
LeftFoot -21.521384 24.476252 -11.871016
LeftToeBase 25.453322 -0.000000 -0.000000
RightUpLeg 6.683225 -8.494146 -0.280816
RightLeg -3.570801 -0.000000 0.000000
RightFoot -22.574555 -20.413647 16.647123
RightToeBase 23.499461 -0.000000 -0.000000
5
root 20.125429 35.338426 -24.901757 -142.118706 87.656090 -145.326079
Spine -12.401989 0.298415 2.064419
Head 4.305589 1.766090 -2.479041
LeftShoulder -17.139875 -28.403056 19.742790
LeftArm 3.032100 -0.473910 -9.115587
LeftForeArm 7.741671 -0.000000 -2.463297
LeftHand -9.933207 -0.000000 -3.713839
LeftHandThumb1 -26.253704 0.000000 33.147579
RightShoulder -14.396142 -6.736743 -10.287310
RightArm 8.286737 41.254951 15.168134
RightForeArm -35.985429 0.000000 5.570833
RightHand -9.303717 -0.000000 5.583822
RightHandThumb1 -24.326973 -0.000000 -32.862282
LeftUpLeg 7.439302 8.244345 2.271193
LeftLeg -5.855660 -0.000000 0.000000
LeftFoot -21.520685 24.492615 -11.867609
LeftToeBase 25.437906 -0.000000 -0.000000
RightUpLeg 6.678227 -8.479439 -0.279112
RightLeg -3.569610 -0.000000 0.000000
RightFoot -22.572955 -20.413291 16.647178
RightToeBase 23.542241 -0.000000 -0.000000
6
root 20.121828 35.338511 -24.902749 -142.047725 87.670114 -145.261414
Spine -12.397791 0.313339 2.052364
Head 4.340041 1.756377 -2.495072
LeftShoulder -17.126450 -28.402292 19.725956
LeftArm 3.040415 -0.421970 -9.109488
LeftForeArm 7.708203 0.000000 -2.456787
LeftHand -9.935733 0.000000 -3.709668
LeftHandThumb1 -26.253704 0.000000 33.147579
RightShoulder -14.414835 -6.771811 -10.272613
RightArm 8.344469 41.290985 15.208035
RightForeArm -35.996802 -0.000000 5.553153
RightHand -9.302955 0.000000 5.582446
RightHandThumb1 -24.326973 -0.000000 -32.862282
LeftUpLeg 7.424000 8.247921 2.260058
LeftLeg -5.846899 -0.000000 0.000000
LeftFoot -21.526426 24.506606 -11.874005
LeftToeBase 25.408024 -0.000000 -0.000000
RightUpLeg 6.661629 -8.461774 -0.285260
RightLeg -3.564022 -0.000000 0.000000
RightFoot -22.567724 -20.417330 16.631826
RightToeBase 23.434455 -0.000000 -0.000000
7
root 20.119362 35.338852 -24.903231 -142.036276 87.677284 -145.254395
Spine -12.389824 0.299003 2.045550
Head 4.369447 1.765326 -2.487676
LeftShoulder -17.151412 -28.382837 19.728844
LeftArm 3.062146 -0.410434 -9.117297
LeftForeArm 7.711297 -0.000000 -2.462230
LeftHand -9.889510 0.000000 -3.712852
LeftHandThumb1 -26.253704 0.000000 33.147579
RightShoulder -14.393912 -6.771628 -10.262758
RightArm 8.340973 41.295070 15.206874
RightForeArm -35.990240 0.000000 5.559798
RightHand -9.296861 -0.000000 5.604045
RightHandThumb1 -24.326973 -0.000000 -32.862282
LeftUpLeg 7.413061 8.253671 2.255596
LeftLeg -5.838336 -0.000000 0.000000
LeftFoot -21.525529 24.495578 -11.867235
LeftToeBase 25.435026 -0.000000 -0.000000
RightUpLeg 6.657184 -8.460768 -0.291659
RightLeg -3.571089 -0.000000 0.000000
RightFoot -22.567777 -20.407320 16.631393
RightToeBase 23.567649 -0.000000 -0.000000
8
root 20.116239 35.339263 -24.902827 -141.647949 87.691809 -144.866878
Spine -12.373958 0.322845 2.044099
Head 4.396499 1.751853 -2.491331
LeftShoulder -17.147752 -28.382345 19.717013
LeftArm 3.069198 -0.415779 -9.121576
LeftForeArm 7.731996 -0.000000 -2.439478
LeftHand -9.886610 -0.000000 -3.752704
LeftHandThumb1 -26.253704 0.000000 33.147579
RightShoulder -14.407277 -6.784965 -10.257311
RightArm 8.370382 41.326954 15.246497
RightForeArm -36.009917 0.000000 5.570225
RightHand -9.303565 -0.000000 5.601332
RightHandThumb1 -24.326973 -0.000000 -32.862282
LeftUpLeg 7.405429 8.270946 2.257836
LeftLeg -5.830403 -0.000000 0.000000
LeftFoot -21.529763 24.485853 -11.854308
LeftToeBase 25.459676 -0.000000 -0.000000
RightUpLeg 6.646178 -8.444021 -0.287638
RightLeg -3.568198 -0.000000 0.000000
RightFoot -22.559666 -20.400833 16.635208
RightToeBase 23.510804 -0.000000 -0.000000
9
root 20.113232 35.339294 -24.902468 -141.391103 87.706086 -144.608099
Spine -12.361667 0.335229 2.035102
Head 4.450269 1.756898 -2.482052
LeftShoulder -17.147097 -28.353244 19.708182
LeftArm 3.090123 -0.419447 -9.133743
LeftForeArm 7.733727 -0.000000 -2.444849
LeftHand -9.839048 -0.000000 -3.775440
LeftHandThumb1 -26.253704 0.000000 33.147579
RightShoulder -14.400019 -6.782085 -10.243218
RightArm 8.369531 41.302529 15.244891
RightForeArm -36.007047 -0.000000 5.571503
RightHand -9.298908 -0.000000 5.578576
RightHandThumb1 -24.326973 -0.000000 -32.862282
LeftUpLeg 7.403376 8.261009 2.255988
LeftLeg -5.825332 -0.000000 0.000000
LeftFoot -21.540231 24.523960 -11.866906
LeftToeBase 25.450026 -0.000000 -0.000000
RightUpLeg 6.639713 -8.436004 -0.289296
RightLeg -3.565122 -0.000000 0.000000
RightFoot -22.562686 -20.380093 16.639169
RightToeBase 23.514208 -0.000000 -0.000000
10
root 20.110397 35.339384 -24.902786 -141.100460 87.721276 -144.310570
Spine -12.337743 0.353710 2.027153
Head 4.492734 1.744679 -2.477094
LeftShoulder -17.138985 -28.363323 19.705813
LeftArm 3.084491 -0.396038 -9.146971
LeftForeArm 7.720110 -0.000000 -2.428930
LeftHand -9.848833 -0.000000 -3.765895
LeftHandThumb1 -26.253704 0.000000 33.147579
RightShoulder -14.399190 -6.794136 -10.223437
RightArm 8.379274 41.315490 15.252215
RightForeArm -36.020937 0.000000 5.572312
RightHand -9.285369 -0.000000 5.574770
RightHandThumb1 -24.326973 -0.000000 -32.862282
LeftUpLeg 7.404335 8.262645 2.254299
LeftLeg -5.815233 -0.000000 0.000000
LeftFoot -21.553293 24.535567 -11.862728
LeftToeBase 25.451780 -0.000000 -0.000000
RightUpLeg 6.643532 -8.428904 -0.291588
RightLeg -3.572211 -0.000000 0.000000
RightFoot -22.548783 -20.375674 16.626291
RightToeBase 23.533482 -0.000000 -0.000000
11
root 20.107166 35.339378 -24.902817 -140.846789 87.737917 -144.057201
Spine -12.321102 0.368014 2.015978
Head 4.538482 1.749972 -2.472005
LeftShoulder -17.138145 -28.320756 19.691877
LeftArm 3.100247 -0.452242 -9.162957
LeftForeArm 7.735454 0.000000 -2.411393
LeftHand -9.905279 -0.000000 -3.769141
LeftHandThumb1 -26.253704 0.000000 33.147579
RightShoulder -14.391866 -6.791950 -10.209935
RightArm 8.371483 41.303681 15.258712
RightForeArm -36.033368 -0.000000 5.603106
RightHand -9.299086 0.000000 5.483402
RightHandThumb1 -24.326973 -0.000000 -32.862282
LeftUpLeg 7.395810 8.266430 2.250963
LeftLeg -5.804378 -0.000000 0.000000
LeftFoot -21.548844 24.550170 -11.863046
LeftToeBase 25.434743 -0.000000 -0.000000
RightUpLeg 6.636469 -8.420259 -0.295828
RightLeg -3.573872 -0.000000 0.000000
RightFoot -22.547421 -20.355390 16.620501
RightToeBase 23.578915 -0.000000 -0.000000
